<svg xmlns="http://www.w3.org/2000/svg" viewBox="0 0 620 160" role="img" aria-labelledby="title desc">
  <title id="title">La Jolla Centro Atletico</title>
  <desc id="desc">Logo La Jolla con simbolo atletico verde lime e azzurro</desc>
  <defs>
    <linearGradient id="mark" x1="0" x2="1" y1="1" y2="0">
      <stop offset="0" stop-color="#0798d4"/>
      <stop offset="0.48" stop-color="#0aa2d8"/>
      <stop offset="0.52" stop-color="#95d600"/>
      <stop offset="1" stop-color="#8bc700"/>
    </linearGradient>
  </defs>
  <rect width="620" height="160" fill="#fff"/>
  <g transform="translate(18 24)">
    <ellipse cx="70" cy="56" rx="76" ry="48" transform="rotate(-32 70 56)" fill="url(#mark)"/>
    <path d="M29 102c27-44 53-72 90-90" fill="none" stroke="#fff" stroke-width="7" stroke-linecap="round" opacity=".95"/>
    <circle cx="89" cy="28" r="10" fill="#fff"/>
    <path d="M42 68l34-22 31 16-23 11 19 34-24 4-20-31-22 23" fill="#fff"/>
  </g>
  <text x="164" y="78" font-family="Arial Black, Arial, sans-serif" font-size="62" font-weight="900" fill="#8bc700">LA</text>
  <text x="260" y="100" font-family="Arial Black, Arial, sans-serif" font-size="96" font-weight="900" fill="#8bc700">J</text>
  <rect x="346" y="51" width="92" height="51" rx="14" fill="#0a9bd3"/>
  <rect x="381" y="65" width="24" height="24" rx="4" fill="#fff"/>
  <text x="446" y="100" font-family="Arial Black, Arial, sans-serif" font-size="82" font-weight="900" fill="#8bc700">LLA</text>
  <text x="385" y="135" font-family="Arial, sans-serif" font-size="24" font-weight="900" fill="#121212">CENTRO ATLETICO</text>
</svg>
