<svg xmlns="http://www.w3.org/2000/svg" viewBox="0 0 1440 1080" role="img" aria-labelledby="title desc">
  <title id="title">Atleta in allenamento funzionale</title>
  <desc id="desc">Visual astratto sportivo con pedana, dati performance e colori La Jolla</desc>
  <defs>
    <linearGradient id="bg" x1="0" x2="1" y1="0" y2="1">
      <stop offset="0" stop-color="#f7fbff"/>
      <stop offset="0.52" stop-color="#eaf7fb"/>
      <stop offset="1" stop-color="#dff4de"/>
    </linearGradient>
    <linearGradient id="blue" x1="0" x2="1">
      <stop stop-color="#009fdb"/>
      <stop offset="1" stop-color="#006ea8"/>
    </linearGradient>
    <linearGradient id="lime" x1="0" x2="1">
      <stop stop-color="#a6df00"/>
      <stop offset="1" stop-color="#76b900"/>
    </linearGradient>
    <filter id="shadow" x="-20%" y="-20%" width="140%" height="140%">
      <feDropShadow dx="0" dy="28" stdDeviation="28" flood-color="#02222c" flood-opacity=".18"/>
    </filter>
  </defs>
  <rect width="1440" height="1080" fill="url(#bg)"/>
  <path d="M0 760c220-86 433-79 636-22 204 57 422 65 804-73v415H0z" fill="#fff"/>
  <g opacity=".4" stroke="#92d400" stroke-width="2">
    <path d="M0 228h1440M0 348h1440M0 468h1440M0 588h1440"/>
    <path d="M182 0v746M405 0v826M628 0v910M851 0v820M1074 0v746M1297 0v720"/>
  </g>
  <g filter="url(#shadow)">
    <rect x="166" y="700" width="1110" height="170" rx="85" fill="#071f28"/>
    <path d="M256 782c116-65 260-92 431-82 171 10 310 48 419 114" fill="none" stroke="#009fdb" stroke-width="32" stroke-linecap="round"/>
    <path d="M318 802c105-48 229-68 372-60 143 9 264 40 363 94" fill="none" stroke="#92d400" stroke-width="28" stroke-linecap="round"/>
  </g>
  <g transform="translate(548 203)" filter="url(#shadow)">
    <circle cx="156" cy="82" r="48" fill="#0b2631"/>
    <path d="M140 145c72 4 129 37 169 99l67 103-72 39-62-86-78 133 126 130-69 58-143-145-98 154-82-38 225-374-111-24-90 91-56-53 121-123c34-34 73-51 117-49z" fill="#0b2631"/>
    <path d="M111 161l128 34-40 72-133-38z" fill="url(#lime)"/>
    <path d="M217 281l67 92-44 75-68-111z" fill="url(#blue)"/>
  </g>
  <g font-family="Inter, Arial, sans-serif" font-weight="800" filter="url(#shadow)">
    <rect x="104" y="126" width="300" height="138" rx="28" fill="#fff"/>
    <text x="137" y="184" font-size="42" fill="#071f28">4 step</text>
    <text x="137" y="226" font-size="24" fill="#60717a">metodo misurabile</text>
    <rect x="1026" y="170" width="294" height="138" rx="28" fill="#fff"/>
    <text x="1058" y="228" font-size="42" fill="#071f28">1:1</text>
    <text x="1058" y="270" font-size="24" fill="#60717a">percorsi guidati</text>
    <rect x="990" y="575" width="310" height="138" rx="28" fill="#fff"/>
    <text x="1022" y="633" font-size="42" fill="#071f28">local SEO</text>
    <text x="1022" y="675" font-size="24" fill="#60717a">servizi chiari</text>
  </g>
</svg>
